<?xml version="1.0" encoding="utf-8"?>
<!-- Svg Vector Icons : http://www.onlinewebfonts.com/icon -->
<!DOCTYPE svg PUBLIC "-//W3C//DTD SVG 1.1//EN" "http://www.w3.org/Graphics/SVG/1.1/DTD/svg11.dtd">
<svg version="1.1" xmlns="http://www.w3.org/2000/svg" xmlns:xlink="http://www.w3.org/1999/xlink" x="0px" y="0px" viewBox="0 0 1000 1000" enable-background="new 0 0 1000 1000" xml:space="preserve">
<metadata> Svg Vector Icons : http://www.onlinewebfonts.com/icon </metadata>
<g><path d="M500,10C228.9,10,10,228.9,10,500c0,271.1,218.9,490,490,490c271.1,0,490-218.9,490-490C990,228.9,771.1,10,500,10z M692.7,304c-26.1,42.5-52.3,81.7-78.4,120.9c-32.7-39.2-62.1-78.4-94.7-120.9C578.4,304,633.9,304,692.7,304z M588.2,437.9c-62.1,0-117.6,0-179.7,0c29.4-42.5,58.8-84.9,88.2-127.4C529.4,353,558.8,392.2,588.2,437.9z M480.4,304c-32.7,42.5-62.1,81.7-91.5,120.9c-26.1-39.2-52.3-78.4-75.1-120.9C369.3,304,421.6,304,480.4,304z M206,434.7c22.9-32.7,45.7-62.1,68.6-94.7c6.5-6.5,13.1-16.3,19.6-26.1c22.9,42.5,45.7,81.7,71.9,124.1c-55.5,0-107.8,0-160.1,0V434.7z M500,761.3c-94.7-101.3-189.5-196-287.5-300.5c55.5,0,104.5,0,156.8,0c6.5,0,13.1,9.8,16.3,16.3c29.4,68.6,55.5,133.9,81.7,202.5c3.3,9.8,6.5,16.3,13.1,22.9c-26.1-81.7-49-160.1-75.1-241.7c65.3,0,124.1,0,189.5,0c-26.1,81.7-52.3,160.1-75.1,241.7h3.3c3.3-6.5,6.5-16.3,9.8-22.9c26.1-68.6,55.5-133.9,81.7-202.5c6.5-13.1,9.8-19.6,26.1-19.6c45.7,0,94.7,0,147,0C689.5,565.3,594.7,660.1,500,761.3z M794,437.9c-52.3,0-104.5,0-160.1,0c26.1-42.5,49-81.7,75.1-124.1c29.4,42.5,55.5,81.7,84.9,120.9V437.9z"/></g>
</svg>